<svg xmlns="http://www.w3.org/2000/svg" viewBox="0 0 80 80" width="80" height="80"><line x1="40" y1="40" x2="65.0" y2="40.0" stroke="#90CAF9" stroke-width="2" stroke-linecap="round" /><line x1="55.0" y1="40.0" x2="61.5" y2="36.2" stroke="#90CAF9" stroke-width="1.5" stroke-linecap="round" /><line x1="55.0" y1="40.0" x2="61.5" y2="43.8" stroke="#90CAF9" stroke-width="1.5" stroke-linecap="round" /><line x1="40" y1="40" x2="52.5" y2="61.7" stroke="#90CAF9" stroke-width="2" stroke-linecap="round" /><line x1="47.5" y1="53.0" x2="54.0" y2="56.7" stroke="#90CAF9" stroke-width="1.5" stroke-linecap="round" /><line x1="47.5" y1="53.0" x2="47.5" y2="60.5" stroke="#90CAF9" stroke-width="1.5" stroke-linecap="round" /><line x1="40" y1="40" x2="27.5" y2="61.7" stroke="#90CAF9" stroke-width="2" stroke-linecap="round" /><line x1="32.5" y1="53.0" x2="32.5" y2="60.5" stroke="#90CAF9" stroke-width="1.5" stroke-linecap="round" /><line x1="32.5" y1="53.0" x2="26.0" y2="56.7" stroke="#90CAF9" stroke-width="1.5" stroke-linecap="round" /><line x1="40" y1="40" x2="15.0" y2="40.0" stroke="#90CAF9" stroke-width="2" stroke-linecap="round" /><line x1="25.0" y1="40.0" x2="18.5" y2="43.8" stroke="#90CAF9" stroke-width="1.5" stroke-linecap="round" /><line x1="25.0" y1="40.0" x2="18.5" y2="36.2" stroke="#90CAF9" stroke-width="1.5" stroke-linecap="round" /><line x1="40" y1="40" x2="27.5" y2="18.3" stroke="#90CAF9" stroke-width="2" stroke-linecap="round" /><line x1="32.5" y1="27.0" x2="26.0" y2="23.3" stroke="#90CAF9" stroke-width="1.5" stroke-linecap="round" /><line x1="32.5" y1="27.0" x2="32.5" y2="19.5" stroke="#90CAF9" stroke-width="1.5" stroke-linecap="round" /><line x1="40" y1="40" x2="52.5" y2="18.3" stroke="#90CAF9" stroke-width="2" stroke-linecap="round" /><line x1="47.5" y1="27.0" x2="47.5" y2="19.5" stroke="#90CAF9" stroke-width="1.5" stroke-linecap="round" /><line x1="47.5" y1="27.0" x2="54.0" y2="23.3" stroke="#90CAF9" stroke-width="1.5" stroke-linecap="round" /></svg>